<svg xmlns="http://www.w3.org/2000/svg" viewBox="0 0 512 512" width="512" height="512">
  <defs>
    <linearGradient id="bg" x1="0%" y1="0%" x2="100%" y2="100%">
      <stop offset="0%" style="stop-color:#3730a3"/>
      <stop offset="100%" style="stop-color:#1e1b4b"/>
    </linearGradient>
  </defs>
  <rect width="512" height="512" rx="64" fill="url(#bg)"/>
  <!-- Calendar grid -->
  <rect x="120" y="100" width="80" height="60" rx="8" fill="#818cf8" opacity="0.9"/>
  <rect x="216" y="100" width="80" height="60" rx="8" fill="#818cf8" opacity="0.7"/>
  <rect x="312" y="100" width="80" height="60" rx="8" fill="#818cf8" opacity="0.5"/>
  
  <rect x="120" y="176" width="80" height="60" rx="8" fill="#a78bfa" opacity="0.9"/>
  <rect x="216" y="176" width="80" height="60" rx="8" fill="#a78bfa" opacity="0.5"/>
  <rect x="312" y="176" width="80" height="60" rx="8" fill="#c4b5fd" opacity="0.3"/>
  
  <rect x="120" y="252" width="80" height="60" rx="8" fill="#818cf8" opacity="0.6"/>
  <rect x="216" y="252" width="80" height="60" rx="8" fill="#a78bfa" opacity="0.8"/>
  <rect x="312" y="252" width="80" height="60" rx="8" fill="#c4b5fd" opacity="0.4"/>
  
  <!-- Time indicator -->
  <circle cx="80" cy="130" r="16" fill="#fbbf24"/>
  <rect x="72" y="130" width="16" height="40" rx="4" fill="#fbbf24"/>
  
  <!-- Text: T -->
  <text x="256" y="420" font-family="Arial, sans-serif" font-size="64" font-weight="bold" fill="#ffffff" text-anchor="middle">TL</text>
</svg>
